<?xml version="1.0" encoding="utf-8"?>
<!-- Generator: Adobe Illustrator 25.0.1, SVG Export Plug-In . SVG Version: 6.00 Build 0)  -->
<svg version="1.1" id="Layer_1" xmlns="http://www.w3.org/2000/svg" xmlns:xlink="http://www.w3.org/1999/xlink" x="0px" y="0px"
	 viewBox="0 0 120.1 130.2" style="enable-background:new 0 0 120.1 130.2;" xml:space="preserve">
<style type="text/css">
	.st0{fill:url(#XMLID_2_);}
	.st1{fill:url(#XMLID_3_);}
	.st2{fill:url(#XMLID_4_);}
	.st3{fill:url(#XMLID_5_);}
	.st4{fill:#FFFFFF;}
</style>
<linearGradient id="XMLID_2_" gradientUnits="userSpaceOnUse" x1="-235.2588" y1="-16.2722" x2="-156.8598" y2="31.0456" gradientTransform="matrix(1 0 0 -1 0 132)">
	<stop  offset="0" style="stop-color:#FCEE39"/>
	<stop  offset="1" style="stop-color:#F37B3D"/>
</linearGradient>
<path id="XMLID_3041_" class="st0" d="M-148.5,99.6c0.9-0.8,1.4-1.9,1.5-3.2c0.1-2.6-1.8-4.7-4.4-4.9c-1.2-0.1-2.4,0.4-3.3,1.1l0,0
	l-83.8,45.9c-1.9,0.8-3.6,2.2-4.7,4.1c-2.9,4.8-1.3,11,3.6,13.9c3.4,2,7.5,1.8,10.7-0.2l0,0l0,0c0.2-0.2,0.5-0.3,0.7-0.5l78-54.8
	C-149.8,100.7-148.7,99.9-148.5,99.6L-148.5,99.6L-148.5,99.6z"/>
<linearGradient id="XMLID_3_" gradientUnits="userSpaceOnUse" x1="-30.0188" y1="249.058" x2="41.5384" y2="186.4117" gradientTransform="matrix(1 0 0 -1 0 132)">
	<stop  offset="0" style="stop-color:#EF5A6B"/>
	<stop  offset="0.57" style="stop-color:#F26F4E"/>
	<stop  offset="1" style="stop-color:#F37B3D"/>
</linearGradient>
<path id="XMLID_3049_" class="st1" d="M40.4-58.8L40.4-58.8l-63.8-62.6c-1.4-1.5-3.4-2.5-5.7-2.5c-4.3,0-7.7,3.5-7.7,7.7l0,0
	c0,2.1,0.8,3.9,2.1,5.3l0,0l0,0c0.4,0.4,0.8,0.7,1.2,1l67.4,57.7l0,0c0.8,0.7,1.8,1.2,3,1.3c2.6,0.1,4.7-1.8,4.9-4.4
	C41.8-56.6,41.3-57.9,40.4-58.8z"/>
<linearGradient id="XMLID_4_" gradientUnits="userSpaceOnUse" x1="-152.7869" y1="71.4063" x2="-195.1957" y2="97.8908" gradientTransform="matrix(1 0 0 -1 0 132)">
	<stop  offset="0" style="stop-color:#7C59A4"/>
	<stop  offset="0.3852" style="stop-color:#AF4C92"/>
	<stop  offset="0.7654" style="stop-color:#DC4183"/>
	<stop  offset="0.957" style="stop-color:#ED3D7D"/>
</linearGradient>
<path id="XMLID_3042_" class="st2" d="M-148.6,56.4c-0.1,0-39.4-31-40.2-31.5l0,0l0,0c-0.6-0.3-1.2-0.6-1.8-0.9
	c-5.8-2.2-12.2,0.8-14.4,6.6c-1.9,5.1,0.2,10.7,4.6,13.4l0,0l0,0c0.7,0.4,1.3,0.7,2,0.9c0.4,0.2,45.4,18.8,45.4,18.8l0,0
	c1.8,0.8,3.9,0.3,5.1-1.2C-146.4,60.6-146.7,57.9-148.6,56.4z"/>
<linearGradient id="XMLID_5_" gradientUnits="userSpaceOnUse" x1="-157.1546" y1="130.2654" x2="-198.5576" y2="96.0702" gradientTransform="matrix(1 0 0 -1 0 132)">
	<stop  offset="0" style="stop-color:#EF5A6B"/>
	<stop  offset="0.364" style="stop-color:#EE4E72"/>
	<stop  offset="1" style="stop-color:#ED3D7D"/>
</linearGradient>
<path id="XMLID_3057_" class="st3" d="M-160-2c-1.7,0-3.3,0.6-4.6,1.5l-39.8,26.8c-0.1,0.1-0.2,0.1-0.2,0.2h-0.1l0,0
	c-1.7,1.2-3.1,3-3.9,5.1c-2.2,5.8,0.8,12.3,6.6,14.4c3.6,1.4,7.5,0.7,10.4-1.4l0,0l0,0c0.7-0.5,1.3-1,1.8-1.6l34.6-31.2l0,0
	c1.8-1.4,3-3.6,3-6.1l0,0C-152.2,1.5-155.7-2-160-2z"/>
<g id="XMLID_3008_">
	<rect id="XMLID_3033_" x="38.2" y="36.9" width="51" height="51"/>
	<rect id="XMLID_3032_" x="42.6" y="78.3" class="st4" width="19.1" height="3.2"/>
	<g id="XMLID_3009_">
		<path id="XMLID_3030_" class="st4" d="M42.4,50.3l1.5-1.4c0.4,0.5,0.8,0.8,1.3,0.8c0.6,0,0.9-0.4,0.9-1.2v-5.3h2.3v5.3
			c0,1-0.3,1.8-0.8,2.3s-1.3,0.8-2.3,0.8C43.8,51.7,43,51.1,42.4,50.3z"/>
		<path id="XMLID_3028_" class="st4" d="M48.9,43.3h6.7v1.9h-4.4v1.3h4v1.8h-4v1.3h4.5v2H49L48.9,43.3z"/>
		<path id="XMLID_3026_" class="st4" d="M58.6,45.3h-2.5v-2h7.3v2h-2.5v6.3h-2.3V45.3z"/>
		<path id="XMLID_3022_" class="st4" d="M42.6,53.5h4.3c1,0,1.8,0.3,2.3,0.7c0.3,0.3,0.5,0.8,0.5,1.4l0,0c0,1-0.5,1.5-1.3,1.9
			c1,0.3,1.6,0.9,1.6,2l0,0c0,1.4-1.2,2.3-3.1,2.3h-4.3V53.5z M47.4,56.1c0-0.5-0.4-0.7-1-0.7h-1.5v1.5h1.4
			C47,56.8,47.4,56.6,47.4,56.1L47.4,56.1z M46.6,58.5h-1.8V60h1.8c0.7,0,1.1-0.3,1.1-0.8l0,0C47.7,58.7,47.3,58.5,46.6,58.5z"/>
		<path id="XMLID_3019_" class="st4" d="M50.4,53.5h3.9c1.3,0,2.1,0.3,2.7,0.9c0.5,0.5,0.7,1.1,0.7,1.9l0,0c0,1.3-0.7,2.1-1.7,2.6
			l2,2.9h-2.6l-1.7-2.5h-1v2.5h-2.3L50.4,53.5z M54.2,57.5c0.8,0,1.2-0.4,1.2-1l0,0c0-0.7-0.5-1-1.2-1h-1.5v2H54.2z"/>
		<path id="XMLID_3016_" class="st4" d="M60.4,53.5h2.2l3.5,8.4h-2.5L63,60.4h-3.2l-0.6,1.5h-2.4L60.4,53.5z M62.4,58.5l-0.9-2.3
			l-0.9,2.3H62.4z"/>
		<path id="XMLID_3014_" class="st4" d="M66.4,53.5h2.3v8.3h-2.3V53.5z"/>
		<path id="XMLID_3012_" class="st4" d="M69.3,53.5h2.1l3.4,4.4v-4.4h2.3v8.3h-2l-3.5-4.5v4.6h-2.3V53.5z"/>
		<path id="XMLID_3010_" class="st4" d="M77.3,60.6l1.3-1.5c0.8,0.7,1.7,1,2.7,1c0.6,0,1-0.2,1-0.6l0,0c0-0.4-0.3-0.5-1.4-0.8
			c-1.8-0.4-3.1-0.9-3.1-2.6l0,0c0-1.5,1.2-2.7,3.2-2.7c1.4,0,2.5,0.4,3.4,1.1l-1.2,1.6c-0.8-0.5-1.6-0.8-2.3-0.8
			c-0.6,0-0.8,0.2-0.8,0.5l0,0c0,0.4,0.3,0.5,1.4,0.8c1.9,0.4,3.1,1,3.1,2.6l0,0c0,1.7-1.3,2.7-3.4,2.7C79.7,62,78.3,61.5,77.3,60.6
			z"/>
	</g>
</g>
</svg>
